<svg id="Layer_5" enable-background="new 0 0 64 64" height="512" viewBox="0 0 64 64" width="512" xmlns="http://www.w3.org/2000/svg"><path d="m58 1h-38c-1.654 0-3 1.346-3 3s1.346 3 3 3h37v2h-33c-1.654 0-3 1.346-3 3s1.346 3 3 3h33v4h-3v2h3c1.103 0 2-.897 2-2v-12c0-1.103-.897-2-2-2h-37c-.551 0-1-.449-1-1s.449-1 1-1h38c1.654 0 3 1.346 3 3v14c0 1.654-1.346 3-3 3h-4v2h4c2.757 0 5-2.243 5-5v-14c0-2.757-2.243-5-5-5zm-34 12c-.551 0-1-.449-1-1s.449-1 1-1h33v2z"/><path d="m51 26v34c0 .551-.449 1-1 1h-1v-35h-2v35h-2v-35h-2v35h-2v-13-8-14h-2v11.184c-.314-.112-.648-.184-1-.184h-1v-11h-2v11h-2v-11h-2v11h-2v-11h-2v11h-2v-11h-2v11h-2v-11h-2v11h-1c-.352 0-.686.072-1 .184v-11.184h-2v14 8 13h-2v-35h-2v35h-2v-35h-2v35h-1c-.551 0-1-.449-1-1v-34h-2v34c0 1.654 1.346 3 3 3h44c1.654 0 3-1.346 3-3v-34zm-34 24.816c.314.112.648.184 1 .184h1v10h-2zm18 .184v10h-2v-10zm-4 10h-2v-10h2zm-4 0h-2v-10h2zm-4 0h-2v-10h2zm16 0h-2v-10h1c.352 0 .686-.072 1-.184zm0-13c0 .551-.449 1-1 1h-20c-.551 0-1-.449-1-1v-8c0-.551.449-1 1-1h20c.551 0 1 .449 1 1z"/><path d="m52 27h-48c-1.654 0-3-1.346-3-3v-4c0-1.654 1.346-3 3-3h48c1.654 0 3 1.346 3 3v4c0 1.654-1.346 3-3 3z" fill="#f0bc5e"/><path d="m5 21h2v2h-2z"/><path d="m9 21h2v2h-2z"/><path d="m13 21h2v2h-2z"/><path d="m19 42h18v4h-18z" fill="#f0bc5e"/><path d="m19 41h18v2h-18z"/><path d="m19 45h18v2h-18z"/></svg>