<?xml version="1.0" encoding="iso-8859-1"?>
<!-- Generator: Adobe Illustrator 19.0.0, SVG Export Plug-In . SVG Version: 6.00 Build 0)  -->
<svg version="1.1" id="Capa_1" xmlns="http://www.w3.org/2000/svg" xmlns:xlink="http://www.w3.org/1999/xlink" x="0px" y="0px"
	 viewBox="0 0 512 512" style="enable-background:new 0 0 512 512;" xml:space="preserve">
<g>
	<rect id="SVGCleanerId_0" x="34.133" y="200.533" width="17.067" height="17.067"/>
</g>
<rect x="34.133" y="234.667" width="17.067" height="17.067"/>
<g>
	<rect id="SVGCleanerId_1" x="34.133" y="268.8" width="17.067" height="17.067"/>
</g>
<rect x="34.133" y="302.933" width="17.067" height="17.067"/>
<g>
	<rect id="SVGCleanerId_2" x="34.133" y="337.067" width="17.067" height="17.067"/>
</g>
<rect x="34.133" y="371.2" width="17.067" height="17.067"/>
<g>
	<rect id="SVGCleanerId_3" x="34.133" y="405.333" width="17.067" height="17.067"/>
</g>
<rect x="34.133" y="439.467" width="17.067" height="17.067"/>
<g>
	<rect id="SVGCleanerId_4" x="68.267" y="200.533" width="17.067" height="17.067"/>
</g>
<rect x="68.267" y="234.667" width="17.067" height="17.067"/>
<g>
	<rect id="SVGCleanerId_5" x="68.267" y="268.8" width="17.067" height="17.067"/>
</g>
<rect x="68.267" y="302.933" width="17.067" height="17.067"/>
<g>
	<rect id="SVGCleanerId_6" x="68.267" y="337.067" width="17.067" height="17.067"/>
</g>
<rect x="68.267" y="371.2" width="17.067" height="17.067"/>
<g>
	<rect id="SVGCleanerId_7" x="68.267" y="405.333" width="17.067" height="17.067"/>
</g>
<rect x="68.267" y="439.467" width="17.067" height="17.067"/>
<g>
	<rect id="SVGCleanerId_8" x="426.667" y="200.533" width="17.067" height="17.067"/>
</g>
<rect x="426.667" y="234.667" width="17.067" height="17.067"/>
<g>
	<rect id="SVGCleanerId_9" x="426.667" y="268.8" width="17.067" height="17.067"/>
</g>
<rect x="426.667" y="302.933" width="17.067" height="17.067"/>
<g>
	<rect id="SVGCleanerId_10" x="426.667" y="337.067" width="17.067" height="17.067"/>
</g>
<rect x="426.667" y="371.2" width="17.067" height="17.067"/>
<g>
	<rect id="SVGCleanerId_11" x="426.667" y="405.333" width="17.067" height="17.067"/>
</g>
<rect x="426.667" y="439.467" width="17.067" height="17.067"/>
<g>
	<rect id="SVGCleanerId_12" x="460.8" y="200.533" width="17.067" height="17.067"/>
</g>
<rect x="460.8" y="234.667" width="17.067" height="17.067"/>
<g>
	<rect id="SVGCleanerId_13" x="460.8" y="268.8" width="17.067" height="17.067"/>
</g>
<rect x="460.8" y="302.933" width="17.067" height="17.067"/>
<g>
	<rect id="SVGCleanerId_14" x="460.8" y="337.067" width="17.067" height="17.067"/>
</g>
<rect x="460.8" y="371.2" width="17.067" height="17.067"/>
<g>
	<rect id="SVGCleanerId_15" x="460.8" y="405.333" width="17.067" height="17.067"/>
</g>
<rect x="460.8" y="439.467" width="17.067" height="17.067"/>
<path id="SVGCleanerId_16" d="M136.533,448c0,4.71,3.823,8.533,8.533,8.533h8.533v25.6c0,4.71,3.823,8.533,8.533,8.533h34.133
	c4.71,0,8.533-3.823,8.533-8.533v-25.6h102.4v25.6c0,4.71,3.823,8.533,8.533,8.533h34.133c4.71,0,8.533-3.823,8.533-8.533v-25.6
	h8.533c4.71,0,8.533-3.823,8.533-8.533v-51.2c-0.026-16.947-10.069-32.273-25.6-39.049v-29.218
	c-0.043-32.973-26.761-59.691-59.733-59.733h-68.267c-32.973,0.043-59.691,26.761-59.733,59.733v29.218
	c-15.531,6.775-25.574,22.101-25.6,39.049V448z M187.733,473.6h-17.067v-17.067h17.067V473.6z M341.333,473.6h-17.067v-17.067
	h17.067V473.6z M179.2,328.533c0.026-23.552,19.115-42.641,42.667-42.667h25.6v8.533H230.4v17.067h51.2V294.4h-17.067v-8.533h25.6
	c23.552,0.026,42.641,19.115,42.667,42.667v25.6h-17.067v-17.067c0-4.71-3.823-8.533-8.533-8.533h-34.133
	c-4.71,0-8.533,3.823-8.533,8.533v17.067h-17.067c0-14.14-11.46-25.6-25.6-25.6c-14.14,0-25.6,11.46-25.6,25.6H179.2V328.533z
	 M298.667,345.6v8.533H281.6V345.6H298.667z M230.4,354.133h-17.067c0-4.71,3.823-8.533,8.533-8.533
	C226.577,345.6,230.4,349.423,230.4,354.133z M153.6,396.8c0-14.14,11.46-25.6,25.6-25.6h153.6c14.14,0,25.6,11.46,25.6,25.6v42.667
	H153.6V396.8z"/>
<path id="SVGCleanerId_17" d="M187.733,430.933c14.14,0,25.6-11.46,25.6-25.6c0-14.14-11.46-25.6-25.6-25.6
	c-14.14,0-25.6,11.46-25.6,25.6C162.133,419.473,173.594,430.933,187.733,430.933z M187.733,396.8c4.71,0,8.533,3.823,8.533,8.533
	s-3.823,8.533-8.533,8.533c-4.71,0-8.533-3.823-8.533-8.533S183.023,396.8,187.733,396.8z"/>
<path id="SVGCleanerId_18" d="M324.267,430.933c14.14,0,25.6-11.46,25.6-25.6c0-14.14-11.46-25.6-25.6-25.6
	c-14.14,0-25.6,11.46-25.6,25.6C298.667,419.473,310.127,430.933,324.267,430.933z M324.267,396.8c4.71,0,8.533,3.823,8.533,8.533
	s-3.823,8.533-8.533,8.533s-8.533-3.823-8.533-8.533S319.556,396.8,324.267,396.8z"/>
<g>
	<rect id="SVGCleanerId_19" x="230.4" y="396.8" width="51.2" height="17.067"/>
</g>
<path d="M503.467,21.333H8.533C3.823,21.333,0,25.156,0,29.867V64c0,4.71,3.823,8.533,8.533,8.533h25.6V166.4h-25.6
	c-4.71,0-8.533,3.823-8.533,8.533v307.2c0,4.71,3.823,8.533,8.533,8.533h102.4c4.71,0,8.533-3.823,8.533-8.533v-307.2
	c0-4.71-3.823-8.533-8.533-8.533h-25.6V72.533H230.4V89.6h-93.867c-4.71,0-8.533,3.823-8.533,8.533v51.2
	c0,4.71,3.823,8.533,8.533,8.533h238.933c4.71,0,8.533-3.823,8.533-8.533v-51.2c0-4.71-3.823-8.533-8.533-8.533H281.6V72.533
	h145.067V166.4h-25.6c-4.71,0-8.533,3.823-8.533,8.533v307.2c0,4.71,3.823,8.533,8.533,8.533h102.4c4.71,0,8.533-3.823,8.533-8.533
	v-307.2c0-4.71-3.823-8.533-8.533-8.533h-25.6V72.533h25.6c4.71,0,8.533-3.823,8.533-8.533V29.867
	C512,25.156,508.177,21.333,503.467,21.333z M102.4,183.467V473.6H17.067V183.467H102.4z M51.2,166.4V72.533h17.067V166.4H51.2z
	 M366.933,106.667V140.8H145.067v-34.133H366.933z M247.467,89.6V72.533h17.067V89.6H247.467z M494.933,183.467V473.6H409.6V183.467
	H494.933z M443.733,166.4V72.533H460.8V166.4H443.733z M494.933,55.467H17.067V38.4h477.867V55.467z"/>
<g>
	<rect id="SVGCleanerId_20" x="179.2" y="200.533" width="17.067" height="17.067"/>
</g>
<rect x="145.067" y="234.667" width="17.067" height="17.067"/>
<g>
	<rect id="SVGCleanerId_21" x="136.533" y="183.467" width="17.067" height="17.067"/>
</g>
<rect x="247.467" y="200.533" width="17.067" height="17.067"/>
<g>
	<rect id="SVGCleanerId_22" x="281.6" y="174.933" width="17.067" height="17.067"/>
</g>
<rect x="315.733" y="200.533" width="17.067" height="17.067"/>
<g>
	<rect id="SVGCleanerId_23" x="349.867" y="234.667" width="17.067" height="17.067"/>
</g>
<rect x="349.867" y="183.467" width="17.067" height="17.067"/>
<g>
	<rect id="SVGCleanerId_24" x="213.333" y="174.933" width="17.067" height="17.067"/>
</g>
<rect x="281.6" y="234.667" width="17.067" height="17.067"/>
<g>
	<rect id="SVGCleanerId_25" x="213.333" y="234.667" width="17.067" height="17.067"/>
</g>
<rect x="162.133" y="115.2" width="17.067" height="17.067"/>
<g>
	<rect id="SVGCleanerId_26" x="196.267" y="115.2" width="17.067" height="17.067"/>
</g>
<rect x="230.4" y="115.2" width="17.067" height="17.067"/>
<g>
	<rect id="SVGCleanerId_27" x="264.533" y="115.2" width="17.067" height="17.067"/>
</g>
<rect x="298.667" y="115.2" width="17.067" height="17.067"/>
<g>
	<rect id="SVGCleanerId_28" x="332.8" y="115.2" width="17.067" height="17.067"/>
</g>
<rect x="435.2" y="55.467" style="fill:#D9D9D9;" width="34.133" height="128"/>
<rect x="435.2" y="55.467" style="fill:#A8A8A8;" width="34.133" height="25.6"/>
<rect x="42.667" y="55.467" style="fill:#D9D9D9;" width="34.133" height="136.533"/>
<rect x="42.667" y="55.467" style="fill:#A8A8A8;" width="34.133" height="25.6"/>
<rect x="238.933" y="55.467" style="fill:#B9B9B9;" width="34.133" height="51.2"/>
<rect x="238.933" y="55.467" style="fill:#A8A8A8;" width="34.133" height="25.6"/>
<path style="fill:#B3E4E8;" d="M221.867,277.333h68.267c28.279,0,51.2,22.921,51.2,51.2v34.133l0,0H170.667l0,0v-34.133
	C170.667,300.254,193.587,277.333,221.867,277.333z"/>
<path style="fill:#8F563B;" d="M238.933,371.2H204.8c-4.71,0-8.533-3.823-8.533-8.533v-8.533c0-14.14,11.46-25.6,25.6-25.6
	c14.14,0,25.6,11.46,25.6,25.6v8.533C247.467,367.377,243.644,371.2,238.933,371.2z M213.333,354.133H230.4
	c0-4.71-3.823-8.533-8.533-8.533C217.156,345.6,213.333,349.423,213.333,354.133z"/>
<rect x="8.533" y="174.933" style="fill:#F7BA61;" width="102.4" height="307.2"/>
<g>
	<g>
		<rect id="SVGCleanerId_0_1_" x="34.133" y="200.533" style="fill:#EA9D2D;" width="17.067" height="17.067"/>
	</g>
	<rect x="34.133" y="234.667" style="fill:#EA9D2D;" width="17.067" height="17.067"/>
	<g>
		<rect id="SVGCleanerId_1_1_" x="34.133" y="268.8" style="fill:#EA9D2D;" width="17.067" height="17.067"/>
	</g>
	<rect x="34.133" y="302.933" style="fill:#EA9D2D;" width="17.067" height="17.067"/>
	<g>
		<rect id="SVGCleanerId_2_1_" x="34.133" y="337.067" style="fill:#EA9D2D;" width="17.067" height="17.067"/>
	</g>
	<rect x="34.133" y="371.2" style="fill:#EA9D2D;" width="17.067" height="17.067"/>
	<g>
		<rect id="SVGCleanerId_3_1_" x="34.133" y="405.333" style="fill:#EA9D2D;" width="17.067" height="17.067"/>
	</g>
	<rect x="34.133" y="439.467" style="fill:#EA9D2D;" width="17.067" height="17.067"/>
	<g>
		<rect id="SVGCleanerId_4_1_" x="68.267" y="200.533" style="fill:#EA9D2D;" width="17.067" height="17.067"/>
	</g>
	<rect x="68.267" y="234.667" style="fill:#EA9D2D;" width="17.067" height="17.067"/>
	<g>
		<rect id="SVGCleanerId_5_1_" x="68.267" y="268.8" style="fill:#EA9D2D;" width="17.067" height="17.067"/>
	</g>
	<rect x="68.267" y="302.933" style="fill:#EA9D2D;" width="17.067" height="17.067"/>
	<g>
		<rect id="SVGCleanerId_6_1_" x="68.267" y="337.067" style="fill:#EA9D2D;" width="17.067" height="17.067"/>
	</g>
	<rect x="68.267" y="371.2" style="fill:#EA9D2D;" width="17.067" height="17.067"/>
	<g>
		<rect id="SVGCleanerId_7_1_" x="68.267" y="405.333" style="fill:#EA9D2D;" width="17.067" height="17.067"/>
	</g>
	<rect x="68.267" y="439.467" style="fill:#EA9D2D;" width="17.067" height="17.067"/>
</g>
<rect x="401.067" y="174.933" style="fill:#F7BA61;" width="102.4" height="307.2"/>
<g>
	<g>
		<rect id="SVGCleanerId_8_1_" x="426.667" y="200.533" style="fill:#EA9D2D;" width="17.067" height="17.067"/>
	</g>
	<rect x="426.667" y="234.667" style="fill:#EA9D2D;" width="17.067" height="17.067"/>
	<g>
		<rect id="SVGCleanerId_9_1_" x="426.667" y="268.8" style="fill:#EA9D2D;" width="17.067" height="17.067"/>
	</g>
	<rect x="426.667" y="302.933" style="fill:#EA9D2D;" width="17.067" height="17.067"/>
	<g>
		<rect id="SVGCleanerId_10_1_" x="426.667" y="337.067" style="fill:#EA9D2D;" width="17.067" height="17.067"/>
	</g>
	<rect x="426.667" y="371.2" style="fill:#EA9D2D;" width="17.067" height="17.067"/>
	<g>
		<rect id="SVGCleanerId_11_1_" x="426.667" y="405.333" style="fill:#EA9D2D;" width="17.067" height="17.067"/>
	</g>
	<rect x="426.667" y="439.467" style="fill:#EA9D2D;" width="17.067" height="17.067"/>
	<g>
		<rect id="SVGCleanerId_12_1_" x="460.8" y="200.533" style="fill:#EA9D2D;" width="17.067" height="17.067"/>
	</g>
	<rect x="460.8" y="234.667" style="fill:#EA9D2D;" width="17.067" height="17.067"/>
	<g>
		<rect id="SVGCleanerId_13_1_" x="460.8" y="268.8" style="fill:#EA9D2D;" width="17.067" height="17.067"/>
	</g>
	<rect x="460.8" y="302.933" style="fill:#EA9D2D;" width="17.067" height="17.067"/>
	<g>
		<rect id="SVGCleanerId_14_1_" x="460.8" y="337.067" style="fill:#EA9D2D;" width="17.067" height="17.067"/>
	</g>
	<rect x="460.8" y="371.2" style="fill:#EA9D2D;" width="17.067" height="17.067"/>
	<g>
		<rect id="SVGCleanerId_15_1_" x="460.8" y="405.333" style="fill:#EA9D2D;" width="17.067" height="17.067"/>
	</g>
	<rect x="460.8" y="439.467" style="fill:#EA9D2D;" width="17.067" height="17.067"/>
</g>
<rect x="247.467" y="277.333" style="fill:#CDCDCD;" width="17.067" height="25.6"/>
<rect x="230.4" y="294.4" style="fill:#B9B9B9;" width="51.2" height="17.067"/>
<rect x="273.067" y="337.067" style="fill:#8F563B;" width="34.133" height="34.133"/>
<rect x="8.533" y="29.867" style="fill:#EBEBEB;" width="494.933" height="34.133"/>
<rect x="136.533" y="98.133" style="fill:#F7BA61;" width="238.933" height="51.2"/>
<g>
	<rect id="SVGCleanerId_20_1_" x="179.2" y="200.533" style="fill:#8ACED8;" width="17.067" height="17.067"/>
</g>
<g>
	<rect x="145.067" y="234.667" style="fill:#B3E4E8;" width="17.067" height="17.067"/>
	<g>
		<rect id="SVGCleanerId_21_1_" x="136.533" y="183.467" style="fill:#B3E4E8;" width="17.067" height="17.067"/>
	</g>
</g>
<rect x="247.467" y="200.533" style="fill:#8ACED8;" width="17.067" height="17.067"/>
<g>
	<rect id="SVGCleanerId_22_1_" x="281.6" y="174.933" style="fill:#B3E4E8;" width="17.067" height="17.067"/>
</g>
<rect x="315.733" y="200.533" style="fill:#8ACED8;" width="17.067" height="17.067"/>
<g>
	<g>
		<rect id="SVGCleanerId_23_1_" x="349.867" y="234.667" style="fill:#B3E4E8;" width="17.067" height="17.067"/>
	</g>
	<rect x="349.867" y="183.467" style="fill:#B3E4E8;" width="17.067" height="17.067"/>
	<g>
		<rect id="SVGCleanerId_24_1_" x="213.333" y="174.933" style="fill:#B3E4E8;" width="17.067" height="17.067"/>
	</g>
	<rect x="281.6" y="234.667" style="fill:#B3E4E8;" width="17.067" height="17.067"/>
	<g>
		<rect id="SVGCleanerId_25_1_" x="213.333" y="234.667" style="fill:#B3E4E8;" width="17.067" height="17.067"/>
	</g>
</g>
<g>
	<rect x="162.133" y="115.2" style="fill:#8ACED8;" width="17.067" height="17.067"/>
	<g>
		<rect id="SVGCleanerId_26_1_" x="196.267" y="115.2" style="fill:#8ACED8;" width="17.067" height="17.067"/>
	</g>
	<rect x="230.4" y="115.2" style="fill:#8ACED8;" width="17.067" height="17.067"/>
	<g>
		<rect id="SVGCleanerId_27_1_" x="264.533" y="115.2" style="fill:#8ACED8;" width="17.067" height="17.067"/>
	</g>
	<rect x="298.667" y="115.2" style="fill:#8ACED8;" width="17.067" height="17.067"/>
	<g>
		<rect id="SVGCleanerId_28_1_" x="332.8" y="115.2" style="fill:#8ACED8;" width="17.067" height="17.067"/>
	</g>
</g>
<g>
	<rect x="162.133" y="439.467" style="fill:#A8A8A8;" width="34.133" height="42.667"/>
	<rect x="315.733" y="439.467" style="fill:#A8A8A8;" width="34.133" height="42.667"/>
</g>
<g>
	<rect x="162.133" y="439.467" style="fill:#787D82;" width="34.133" height="25.6"/>
	<rect x="315.733" y="439.467" style="fill:#787D82;" width="34.133" height="25.6"/>
</g>
<path style="fill:#DC4D41;" d="M179.2,362.667h153.6c18.85,0,34.133,15.283,34.133,34.133V448l0,0H145.067l0,0v-51.2
	C145.067,377.95,160.35,362.667,179.2,362.667z"/>
<g>
	<circle style="fill:#F4CA62;" cx="187.733" cy="405.333" r="17.067"/>
	<circle style="fill:#F4CA62;" cx="324.267" cy="405.333" r="17.067"/>
</g>
<g>
	<rect id="SVGCleanerId_19_1_" x="230.4" y="396.8" style="fill:#1F6C8C;" width="51.2" height="17.067"/>
</g>
<g>
	<rect id="SVGCleanerId_0_2_" x="34.133" y="200.533" width="17.067" height="17.067"/>
</g>
<rect x="34.133" y="234.667" width="17.067" height="17.067"/>
<g>
	<rect id="SVGCleanerId_1_2_" x="34.133" y="268.8" width="17.067" height="17.067"/>
</g>
<rect x="34.133" y="302.933" width="17.067" height="17.067"/>
<g>
	<rect id="SVGCleanerId_2_2_" x="34.133" y="337.067" width="17.067" height="17.067"/>
</g>
<rect x="34.133" y="371.2" width="17.067" height="17.067"/>
<g>
	<rect id="SVGCleanerId_3_2_" x="34.133" y="405.333" width="17.067" height="17.067"/>
</g>
<rect x="34.133" y="439.467" width="17.067" height="17.067"/>
<g>
	<rect id="SVGCleanerId_4_2_" x="68.267" y="200.533" width="17.067" height="17.067"/>
</g>
<rect x="68.267" y="234.667" width="17.067" height="17.067"/>
<g>
	<rect id="SVGCleanerId_5_2_" x="68.267" y="268.8" width="17.067" height="17.067"/>
</g>
<rect x="68.267" y="302.933" width="17.067" height="17.067"/>
<g>
	<rect id="SVGCleanerId_6_2_" x="68.267" y="337.067" width="17.067" height="17.067"/>
</g>
<rect x="68.267" y="371.2" width="17.067" height="17.067"/>
<g>
	<rect id="SVGCleanerId_7_2_" x="68.267" y="405.333" width="17.067" height="17.067"/>
</g>
<rect x="68.267" y="439.467" width="17.067" height="17.067"/>
<g>
	<rect id="SVGCleanerId_8_2_" x="426.667" y="200.533" width="17.067" height="17.067"/>
</g>
<rect x="426.667" y="234.667" width="17.067" height="17.067"/>
<g>
	<rect id="SVGCleanerId_9_2_" x="426.667" y="268.8" width="17.067" height="17.067"/>
</g>
<rect x="426.667" y="302.933" width="17.067" height="17.067"/>
<g>
	<rect id="SVGCleanerId_10_2_" x="426.667" y="337.067" width="17.067" height="17.067"/>
</g>
<rect x="426.667" y="371.2" width="17.067" height="17.067"/>
<g>
	<rect id="SVGCleanerId_11_2_" x="426.667" y="405.333" width="17.067" height="17.067"/>
</g>
<rect x="426.667" y="439.467" width="17.067" height="17.067"/>
<g>
	<rect id="SVGCleanerId_12_2_" x="460.8" y="200.533" width="17.067" height="17.067"/>
</g>
<rect x="460.8" y="234.667" width="17.067" height="17.067"/>
<g>
	<rect id="SVGCleanerId_13_2_" x="460.8" y="268.8" width="17.067" height="17.067"/>
</g>
<rect x="460.8" y="302.933" width="17.067" height="17.067"/>
<g>
	<rect id="SVGCleanerId_14_2_" x="460.8" y="337.067" width="17.067" height="17.067"/>
</g>
<rect x="460.8" y="371.2" width="17.067" height="17.067"/>
<g>
	<rect id="SVGCleanerId_15_2_" x="460.8" y="405.333" width="17.067" height="17.067"/>
</g>
<rect x="460.8" y="439.467" width="17.067" height="17.067"/>
<g>
	<path id="SVGCleanerId_16_1_" d="M136.533,448c0,4.71,3.823,8.533,8.533,8.533h8.533v25.6c0,4.71,3.823,8.533,8.533,8.533h34.133
		c4.71,0,8.533-3.823,8.533-8.533v-25.6h102.4v25.6c0,4.71,3.823,8.533,8.533,8.533h34.133c4.71,0,8.533-3.823,8.533-8.533v-25.6
		h8.533c4.71,0,8.533-3.823,8.533-8.533v-51.2c-0.026-16.947-10.069-32.273-25.6-39.049v-29.218
		c-0.043-32.973-26.761-59.691-59.733-59.733h-68.267c-32.973,0.043-59.691,26.761-59.733,59.733v29.218
		c-15.531,6.775-25.574,22.101-25.6,39.049V448z M187.733,473.6h-17.067v-17.067h17.067V473.6z M341.333,473.6h-17.067v-17.067
		h17.067V473.6z M179.2,328.533c0.026-23.552,19.115-42.641,42.667-42.667h25.6v8.533H230.4v17.067h51.2V294.4h-17.067v-8.533h25.6
		c23.552,0.026,42.641,19.115,42.667,42.667v25.6h-17.067v-17.067c0-4.71-3.823-8.533-8.533-8.533h-34.133
		c-4.71,0-8.533,3.823-8.533,8.533v17.067h-17.067c0-14.14-11.46-25.6-25.6-25.6c-14.14,0-25.6,11.46-25.6,25.6H179.2V328.533z
		 M298.667,345.6v8.533H281.6V345.6H298.667z M230.4,354.133h-17.067c0-4.71,3.823-8.533,8.533-8.533
		C226.577,345.6,230.4,349.423,230.4,354.133z M153.6,396.8c0-14.14,11.46-25.6,25.6-25.6h153.6c14.14,0,25.6,11.46,25.6,25.6
		v42.667H153.6V396.8z"/>
</g>
<g>
	<path id="SVGCleanerId_17_1_" d="M187.733,430.933c14.14,0,25.6-11.46,25.6-25.6c0-14.14-11.46-25.6-25.6-25.6
		c-14.14,0-25.6,11.46-25.6,25.6C162.133,419.473,173.594,430.933,187.733,430.933z M187.733,396.8c4.71,0,8.533,3.823,8.533,8.533
		s-3.823,8.533-8.533,8.533c-4.71,0-8.533-3.823-8.533-8.533S183.023,396.8,187.733,396.8z"/>
</g>
<g>
	<path id="SVGCleanerId_18_1_" d="M324.267,430.933c14.14,0,25.6-11.46,25.6-25.6c0-14.14-11.46-25.6-25.6-25.6
		c-14.14,0-25.6,11.46-25.6,25.6C298.667,419.473,310.127,430.933,324.267,430.933z M324.267,396.8c4.71,0,8.533,3.823,8.533,8.533
		s-3.823,8.533-8.533,8.533s-8.533-3.823-8.533-8.533S319.556,396.8,324.267,396.8z"/>
</g>
<g>
	<rect id="SVGCleanerId_19_2_" x="230.4" y="396.8" width="51.2" height="17.067"/>
</g>
<path d="M503.467,21.333H8.533C3.823,21.333,0,25.156,0,29.867V64c0,4.71,3.823,8.533,8.533,8.533h25.6V166.4h-25.6
	c-4.71,0-8.533,3.823-8.533,8.533v307.2c0,4.71,3.823,8.533,8.533,8.533h102.4c4.71,0,8.533-3.823,8.533-8.533v-307.2
	c0-4.71-3.823-8.533-8.533-8.533h-25.6V72.533H230.4V89.6h-93.867c-4.71,0-8.533,3.823-8.533,8.533v51.2
	c0,4.71,3.823,8.533,8.533,8.533h238.933c4.71,0,8.533-3.823,8.533-8.533v-51.2c0-4.71-3.823-8.533-8.533-8.533H281.6V72.533
	h145.067V166.4h-25.6c-4.71,0-8.533,3.823-8.533,8.533v307.2c0,4.71,3.823,8.533,8.533,8.533h102.4c4.71,0,8.533-3.823,8.533-8.533
	v-307.2c0-4.71-3.823-8.533-8.533-8.533h-25.6V72.533h25.6c4.71,0,8.533-3.823,8.533-8.533V29.867
	C512,25.156,508.177,21.333,503.467,21.333z M102.4,183.467V473.6H17.067V183.467H102.4z M51.2,166.4V72.533h17.067V166.4H51.2z
	 M366.933,106.667V140.8H145.067v-34.133H366.933z M247.467,89.6V72.533h17.067V89.6H247.467z M494.933,183.467V473.6H409.6V183.467
	H494.933z M443.733,166.4V72.533H460.8V166.4H443.733z M494.933,55.467H17.067V38.4h477.867V55.467z"/>
<g>
	<rect id="SVGCleanerId_20_2_" x="179.2" y="200.533" width="17.067" height="17.067"/>
</g>
<rect x="145.067" y="234.667" width="17.067" height="17.067"/>
<g>
	<rect id="SVGCleanerId_21_2_" x="136.533" y="183.467" width="17.067" height="17.067"/>
</g>
<rect x="247.467" y="200.533" width="17.067" height="17.067"/>
<g>
	<rect id="SVGCleanerId_22_2_" x="281.6" y="174.933" width="17.067" height="17.067"/>
</g>
<rect x="315.733" y="200.533" width="17.067" height="17.067"/>
<g>
	<rect id="SVGCleanerId_23_2_" x="349.867" y="234.667" width="17.067" height="17.067"/>
</g>
<rect x="349.867" y="183.467" width="17.067" height="17.067"/>
<g>
	<rect id="SVGCleanerId_24_2_" x="213.333" y="174.933" width="17.067" height="17.067"/>
</g>
<rect x="281.6" y="234.667" width="17.067" height="17.067"/>
<g>
	<rect id="SVGCleanerId_25_2_" x="213.333" y="234.667" width="17.067" height="17.067"/>
</g>
<rect x="162.133" y="115.2" width="17.067" height="17.067"/>
<g>
	<rect id="SVGCleanerId_26_2_" x="196.267" y="115.2" width="17.067" height="17.067"/>
</g>
<rect x="230.4" y="115.2" width="17.067" height="17.067"/>
<g>
	<rect id="SVGCleanerId_27_2_" x="264.533" y="115.2" width="17.067" height="17.067"/>
</g>
<rect x="298.667" y="115.2" width="17.067" height="17.067"/>
<g>
	<rect id="SVGCleanerId_28_2_" x="332.8" y="115.2" width="17.067" height="17.067"/>
</g>
<g>
</g>
<g>
</g>
<g>
</g>
<g>
</g>
<g>
</g>
<g>
</g>
<g>
</g>
<g>
</g>
<g>
</g>
<g>
</g>
<g>
</g>
<g>
</g>
<g>
</g>
<g>
</g>
<g>
</g>
</svg>
