<?xml version="1.0"?>
<svg xmlns="http://www.w3.org/2000/svg" viewBox="0 0 64 64" width="512" height="512"><rect fill="#fcd821" height="12" rx="4" transform="matrix(.7071069 .70710666 -.70710666 .7071069 55.58577 -23.02439)" width="8" x="51.58578" y="49.58578"/><path d="m23 3v24.51459a11.03852 11.03852 0 0 1 2.78955 3.48541h35.21045v-28z" fill="#b6dedc"/><g fill="#344496"><path d="m40 35h5v8h-5z"/><path d="m32 43h20v5h-20z"/><path d="m3 56h25v5h-25z"/><path d="m25.78955 31a10.91521 10.91521 0 0 1 1.16 4h34.05045v-4z"/></g><path d="m51.939 15.89435-3.21826-.87494a6.95923 6.95923 0 0 0 -.56939-1.36572l1.66082-2.89911-1.56077-1.56079-2.89911 1.66089a6.96018 6.96018 0 0 0 -1.36572-.5694l-.87488-3.21828a10.04741 10.04741 0 0 0 -2.2113-.00006l-.87494 3.21826a6.95966 6.95966 0 0 0 -1.36578.56946l-2.89911-1.66081-1.56079 1.56073 1.66089 2.89911a6.95991 6.95991 0 0 0 -.56946 1.36566l-3.21814.87488a10.05109 10.05109 0 0 0 -.00006 2.2113l3.2182.875a6.96093 6.96093 0 0 0 .56946 1.36578l-1.66083 2.89911 1.56073 1.56073 2.89911-1.66083a6.95866 6.95866 0 0 0 1.36572.5694l.87488 3.21826a10.04837 10.04837 0 0 0 2.211.00006l.0003-.00006.87494-3.21826a6.95553 6.95553 0 0 0 1.36578-.5694l2.89911 1.66083 1.56073-1.56079-1.66082-2.89905a6.96024 6.96024 0 0 0 .56939-1.36566l3.21833-.87488v-.00018a10.04686 10.04686 0 0 0 -.00003-2.21124zm-9.933 4.10565a3 3 0 1 1 3-3 3 3 0 0 1 -3 3z" fill="#fcd821"/><path d="m16 25a11 11 0 1 0 11 11 11 11 0 0 0 -11-11zm1.5 13.59808a3 3 0 1 1 1.09808-4.09808 3 3 0 0 1 -1.09808 4.09808z" fill="#ec322c"/><path d="m41.99365 27.99365a11.09934 11.09934 0 0 1 -1.21533-.0664 1 1 0 0 1 -.855-.73194l-.73532-2.70312c-.17041-.06446-.34033-.13574-.5083-.21289l-2.43408 1.39453a1.00035 1.00035 0 0 1 -1.20411-.16065l-1.56051-1.56054a.99921.99921 0 0 1 -.16065-1.2041l1.39449-2.43454c-.07714-.168-.14843-.33789-.21289-.5083l-2.70312-.73535a.99942.99942 0 0 1 -.73194-.85449 11.06737 11.06737 0 0 1 0-2.43213.99942.99942 0 0 1 .73194-.85449l2.70312-.73486c.06446-.17041.13575-.34034.21289-.5083l-1.39453-2.43458a.99921.99921 0 0 1 .16065-1.2041l1.56054-1.56058a.99616.99616 0 0 1 1.20411-.16065l2.43408 1.39453c.168-.07715.33789-.14843.5083-.21289l.73535-2.70312a1.00006 1.00006 0 0 1 .85547-.73194 11.11463 11.11463 0 0 1 2.43066 0 1 1 0 0 1 .855.73194l.73535 2.70312c.17041.06446.34034.13574.50831.21289l2.43408-1.39453a.99661.99661 0 0 1 1.2041.16065l1.561 1.56054a.99921.99921 0 0 1 .16065 1.2041l-1.39452 2.43454q.11572.25194.2124.5083l2.70312.73535a.99942.99942 0 0 1 .73194.85449 11.06293 11.06293 0 0 1 0 2.43164.99942.99942 0 0 1 -.73194.85449l-2.70312.73535q-.09667.25635-.2124.5083l1.39456 2.43462a.99921.99921 0 0 1 -.16065 1.2041l-1.561 1.56054a1.0008 1.0008 0 0 1 -1.2041.16065l-2.43414-1.39453c-.168.07715-.3379.14843-.50831.21289l-.73535 2.70312a1 1 0 0 1 -.85547.73194 11.09934 11.09934 0 0 1 -1.21533.0664zm-.32617-2.00586q.32666.01173.65234 0l.69-2.53564a1.00048 1.00048 0 0 1 .6831-.69678 5.97953 5.97953 0 0 0 1.16943-.48828.99766.99766 0 0 1 .9751.01074l2.23535 1.28076.4795-.47949-1.28077-2.23584a.9995.9995 0 0 1 -.01025-.97607 5.96 5.96 0 0 0 .48779-1.16846.99937.99937 0 0 1 .69727-.6831l2.53564-.689q.01173-.32666 0-.65283l-2.53564-.68945a.9994.9994 0 0 1 -.69727-.68311 5.96 5.96 0 0 0 -.48779-1.16846.9995.9995 0 0 1 .01025-.97607l1.28077-2.23584-.4795-.47949-2.2354 1.28079a1.00018 1.00018 0 0 1 -.9751.01074 5.97953 5.97953 0 0 0 -1.16943-.48828.99939.99939 0 0 1 -.6831-.69727l-.68946-2.53515q-.32666-.01173-.65283 0l-.68948 2.53515a.99938.99938 0 0 1 -.68311.69727 5.97979 5.97979 0 0 0 -1.16943.48828 1.00011 1.00011 0 0 1 -.9751-.01074l-2.23536-1.28076-.47949.47949 1.28076 2.23584a1.00015 1.00015 0 0 1 .01074.9751 5.97953 5.97953 0 0 0 -.48828 1.16943.99938.99938 0 0 1 -.69727.68311l-2.53564.689q-.01171.32666 0 .65283l2.53564.68946a.99935.99935 0 0 1 .69727.6831 5.97953 5.97953 0 0 0 .48828 1.16943 1.00015 1.00015 0 0 1 -.01074.9751l-1.28072 2.2358.47949.47949 2.23535-1.28076a.99759.99759 0 0 1 .9751-.01074 5.97979 5.97979 0 0 0 1.16943.48828.99938.99938 0 0 1 .68311.69727z"/><path d="m42.00586 21a4 4 0 1 1 4-4 4.00458 4.00458 0 0 1 -4 4zm0-6a2 2 0 1 0 2 2 2.002 2.002 0 0 0 -2-2z"/><path d="m52 6h2v2h-2z"/><path d="m56 6h2v2h-2z"/><path d="m28 62h-25a1 1 0 0 1 -1-1v-5a1 1 0 0 1 1-1h25a1 1 0 0 1 1 1v5a1 1 0 0 1 -1 1zm-24-2h23v-3h-23z"/><path d="m16 40a4 4 0 1 1 4-4 4.00458 4.00458 0 0 1 -4 4zm0-6a2 2 0 1 0 2 2 2.002 2.002 0 0 0 -2-2z"/><path d="m4 46h2v7h-2z"/><path d="m25 46h2v7h-2z"/><path d="m21 49h2v4h-2z"/><path d="m8 49h2v4h-2z"/><path d="m12 51h2v2h-2z"/><path d="m17 51h2v2h-2z"/><path d="m60.53564 50.63623a5.00643 5.00643 0 0 0 -7.07128 0l-2.82813 2.82813a5 5 0 0 0 7.0708 7.07128l2.82861-2.82864a5.005 5.005 0 0 0 0-7.07077zm-2.25158.83752-1.99106 1.99109-1.41455-1.41455a2.99593 2.99593 0 0 1 3.40561-.57654zm-1.99106 7.64783a3.0002 3.0002 0 1 1 -4.24268-4.24316l1.41407-1.41406 4.24292 4.24292zm2.82858-2.82858-.00024.00024-1.41434-1.41433 1.99121-1.99121a2.99582 2.99582 0 0 1 -.57663 3.4053z"/><path d="m61 2h-38a1 1 0 0 0 -1 1v22.62372a11.98984 11.98984 0 1 0 6 10.37628h11v6h-7a1 1 0 0 0 -1 1v5a1 1 0 0 0 1 1h20a1 1 0 0 0 1-1v-5a1 1 0 0 0 -1-1h-6v-6h15a1 1 0 0 0 1-1v-32a1 1 0 0 0 -1-1zm-37 2h36v26h-33.62372a12.06673 12.06673 0 0 0 -2.37628-2.91876zm-8 42a10 10 0 1 1 10-10 10.01114 10.01114 0 0 1 -10 10zm35 1h-18v-3h18zm-7-5h-3v-6h3zm-16.18066-8a11.87943 11.87943 0 0 0 -.51947-2h32.70013v2z"/></svg>
