<svg height="512" viewBox="0 0 64 64" width="512" xmlns="http://www.w3.org/2000/svg"><g id="Web-computer-bag_shopping-bag-online_shopping" data-name="Web-computer-bag shopping-bag-online shopping"><path d="m61 11v28h-58v-28a4 4 0 0 1 4-4h50a4 4 0 0 1 4 4z" fill="#46f8ff"/><path d="m61 39v4a4 4 0 0 1 -4 4h-50a4 4 0 0 1 -4-4v-4z" fill="#ff7956"/><path d="m38 21h12v12h-12z" fill="#fee9ab"/><path d="m46 21h4v12h-4z" fill="#ffd422"/><path d="m46 57v4h-28v-4a2.006 2.006 0 0 1 2-2h24a2.006 2.006 0 0 1 2 2z" fill="#ff7956"/><path d="m22 13h16v20h-16z" fill="#a78966"/><path d="m34 13h4v20h-4z" fill="#806749"/><path d="m34 21h4v12h-4z" fill="#ff7956"/><path d="m27 47h10v8h-10z" fill="#fee9ab"/><path d="m61 11v28h-5v-28a4 4 0 0 0 -4-4h5a4 4 0 0 1 4 4z" fill="#00d7df"/><path d="m61 39v4a4 4 0 0 1 -4 4h-5a4 4 0 0 0 4-4v-4z" fill="#ff5023"/><path d="m46 57v4h-5v-4a2.006 2.006 0 0 0 -2-2h5a2.006 2.006 0 0 1 2 2z" fill="#ff5023"/><path d="m32 47h5v8h-5z" fill="#ffd422"/><path d="m18 29-4 4v-20h4 4v20z" fill="#fee9ab"/><path d="m22 33h-8l4-4z" fill="#ff7956"/><path d="m57 6h-22.1a5.017 5.017 0 0 0 -4.9-4h-8a5.017 5.017 0 0 0 -4.9 4h-10.1a5 5 0 0 0 -5 5v32a5 5 0 0 0 5 5h19v6h-6a3.009 3.009 0 0 0 -3 3v4a1 1 0 0 0 1 1h28a1 1 0 0 0 1-1v-4a3.009 3.009 0 0 0 -3-3h-6v-6h19a5 5 0 0 0 5-5v-32a5 5 0 0 0 -5-5zm-27-2a3.009 3.009 0 0 1 3 3v5h-2v-5a4.924 4.924 0 0 0 -1.03-3zm-7 3a3 3 0 0 1 6 0v5h-6zm0 7h14v6h-3a1 1 0 0 0 -1 1v11h-10zm14 8v10h-2v-10zm-18-15a3.009 3.009 0 0 1 3-3h.03a4.924 4.924 0 0 0 -1.03 3v5h-2zm2 7v16.59l-2-2v-12.59h-2v12.59l-2 2v-16.59zm-1.41 18h-3.18l1.59-1.59zm24.41 24a1 1 0 0 1 1 1v3h-26v-3a1 1 0 0 1 1-1zm-16-2v-6h8v6zm32-11a3.009 3.009 0 0 1 -3 3h-50a3.009 3.009 0 0 1 -3-3v-3h56zm0-5h-56v-27a3.009 3.009 0 0 1 3-3h10v4h-3a1 1 0 0 0 -1 1v20a1 1 0 0 0 1 1h36a1 1 0 0 0 1-1v-12a1 1 0 0 0 -1-1h-3v-3a3.009 3.009 0 0 0 -3-3h-4a3 3 0 0 0 -1 .18v-1.18a1 1 0 0 0 -1-1h-3v-4h22a3.009 3.009 0 0 1 3 3zm-11-16v10h-10v-10zm-10-2v-3a1 1 0 0 1 1-1h4a1 1 0 0 1 1 1v3z"/><path d="m54 42h2v2h-2z"/><path d="m50 42h2v2h-2z"/><path d="m52 18a1 1 0 0 0 .707-.293l5-5-1.414-1.414-4.293 4.293-2.293-2.293-1.414 1.414 3 3a1 1 0 0 0 .707.293z"/></g></svg>